<svg xmlns="http://www.w3.org/2000/svg" version="1.1" xmlns:xlink="http://www.w3.org/1999/xlink" xmlns:svgjs="http://svgjs.dev/svgjs" width="2000" height="1247" viewBox="0 0 2000 1247"><g transform="matrix(1,0,0,1,-1.2121212121212466,0.5048582995952984)"><svg viewBox="0 0 396 247" data-background-color="#ffffff" preserveAspectRatio="xMidYMid meet" height="1247" width="2000" xmlns="http://www.w3.org/2000/svg" xmlns:xlink="http://www.w3.org/1999/xlink"><g id="tight-bounds" transform="matrix(1,0,0,1,0.2400000000000091,-0.09999999999999432)"><svg viewBox="0 0 395.52 247.2" height="247.2" width="395.52"><g><svg></svg></g><g><svg viewBox="0 0 395.52 247.2" height="247.2" width="395.52"><mask id="d111e96a-36cc-4b0c-b4cf-3d19ace11dd5"><rect width="395.52" height="247.2" fill="white"></rect><g transform="matrix(1,0,0,1,11.831658031088068,37.08)" id="clone"><svg viewBox="0 0 371.85668393782385 173.04" height="173.04" width="371.85668393782385"><g><svg viewBox="0 0 371.85668393782385 173.04" height="173.04" width="371.85668393782385"><g><svg viewBox="0 0 371.85668393782385 173.04" height="173.04" width="371.85668393782385"><g><svg viewBox="0 0 371.85668393782385 173.04" height="173.04" width="371.85668393782385"><g id="SvgjsG1131"><svg viewBox="0 0 371.85668393782385 173.04" height="173.04" width="371.85668393782385" id="SvgjsSvg1130"><g><svg viewBox="0 0 371.85668393782385 173.04" height="173.04" width="371.85668393782385"><g transform="matrix(1,0,0,1,0,0)"><svg width="371.85668393782385" viewBox="0.7000000000000002 -37.3 83.95 39.599999999999994" height="173.04" data-palette-color="#ec4899"><path d="M23.1 0.5L21.6 0.5Q19.4-4.5 17.15-9.47 14.9-14.45 12.75-19.55L12.75-19.55Q12.05-21.15 11.38-22.78 10.7-24.4 10.08-26.05 9.45-27.7 8.8-29.35L8.8-29.35Q8.8-28.8 8.78-28.25 8.75-27.7 8.75-27.15L8.75-27.15Q8.7-25.35 8.63-22.83 8.55-20.3 8.45-17.43 8.35-14.55 8.3-11.68 8.25-8.8 8.2-6.25L8.2-6.25Q8.15-5.15 8.13-4.05 8.1-2.95 8-2L8-2Q8.95-2.05 9.88-2.1 10.8-2.15 11.75-2.2L11.75-2.2 11.75 0 2.2 0 2.2-1.65Q3.75-1.7 4.48-2.33 5.2-2.95 5.4-4 5.6-5.05 5.65-6.25L5.65-6.25 6.6-29.05Q6.65-30.05 6.68-31.05 6.7-32.05 6.75-33L6.75-33Q5.85-32.95 4.95-32.93 4.05-32.9 3.15-32.85L3.15-32.85 3.15-35 10.8-35 19.4-15.15Q20.05-13.65 20.68-12.15 21.3-10.65 21.98-9.15 22.65-7.65 23.3-6.1L23.3-6.1 23.4-6.1Q23.95-7.45 24.7-9.33 25.45-11.2 25.95-12.55L25.95-12.55Q28.15-18.05 30.53-23.58 32.9-29.1 35.2-35L35.2-35 42.6-35 42.6-33.35Q41.35-33.4 40.55-32.88 39.75-32.35 39.4-31.15 39.05-29.95 39.15-27.9L39.15-27.9 40.45-5.15Q40.55-4.3 40.55-3.5 40.55-2.7 40.55-2.05L40.55-2.05Q41.45-2.1 42.38-2.13 43.3-2.15 44.2-2.2L44.2-2.2 44.2 0 33 0 33-1.65Q34.55-1.7 35.3-2.4 36.05-3.1 36.23-4.4 36.4-5.7 36.3-7.6L36.3-7.6 35.3-24.1Q35.25-24.9 35.2-25.7 35.15-26.5 35.1-27.3 35.05-28.1 35-28.9L35-28.9Q34.85-28.55 34.68-28.15 34.5-27.75 34.35-27.3L34.35-27.3 23.1 0.5ZM65.75 0.8L65.75 0.8Q61 0.8 57.6-0.8 54.2-2.4 52.07-5.08 49.95-7.75 48.95-11 47.95-14.25 47.95-17.5L47.95-17.5Q47.95-20.65 49-23.88 50.05-27.1 52.22-29.8 54.4-32.5 57.67-34.15 60.95-35.8 65.35-35.8L65.35-35.8Q69.95-35.8 73.3-34.15 76.65-32.5 78.82-29.78 81-27.05 82.07-23.85 83.15-20.65 83.15-17.5L83.15-17.5Q83.15-14.4 82.1-11.18 81.05-7.95 78.87-5.23 76.7-2.5 73.45-0.85 70.2 0.8 65.75 0.8ZM65.85-1.25L65.85-1.25Q68.95-1.25 71.25-2.58 73.55-3.9 75.07-6.13 76.6-8.35 77.37-11.08 78.15-13.8 78.15-16.55L78.15-16.55Q78.15-19.65 77.3-22.7 76.45-25.75 74.8-28.25 73.15-30.75 70.72-32.27 68.3-33.8 65.2-33.8L65.2-33.8Q62.1-33.8 59.77-32.45 57.45-31.1 55.92-28.88 54.4-26.65 53.62-23.93 52.85-21.2 52.85-18.4L52.85-18.4Q52.85-15.65 53.62-12.65 54.4-9.65 56-7.05 57.6-4.45 60.05-2.85 62.5-1.25 65.85-1.25Z" opacity="1" transform="matrix(1,0,0,1,0,0)" fill="black" class="wordmark-text-0" id="SvgjsPath1129" stroke-width="2" stroke="black" stroke-linejoin="round"></path></svg></g></svg></g></svg></g></svg></g></svg></g></svg></g></svg></g></mask><g mask="url(#d111e96a-36cc-4b0c-b4cf-3d19ace11dd5)"><g><path d="M197.064 247.2h-10.445c-10.213-23.211-20.542-46.353-30.987-69.425-10.445-23.118-20.658-46.515-30.639-70.191v0c-3.25-7.428-6.43-14.925-9.54-22.491-3.157-7.52-6.174-15.111-9.053-22.771-2.925-7.66-5.896-15.319-8.913-22.979v0c0 2.553-0.046 5.106-0.139 7.66-0.139 2.553-0.209 5.106-0.209 7.66v0c-0.232 8.356-0.511 18.383-0.835 30.081-0.371 11.745-0.789 24.279-1.254 37.603-0.464 13.37-0.812 26.716-1.044 40.039-0.232 13.37-0.464 25.973-0.697 37.811v0c-0.232 5.106-0.395 10.213-0.487 15.32-0.139 5.106-0.441 9.865-0.905 14.275v0c4.41-0.232 8.774-0.464 13.091-0.697 4.271-0.232 8.611-0.464 13.021-0.696v0 15.319h-66.5v-11.489c7.195-0.232 12.488-1.81 15.877-4.735 3.342-2.878 5.478-6.754 6.406-11.629 0.928-4.874 1.509-10.097 1.741-15.668v0l6.615-158.765c0.232-4.642 0.418-9.285 0.557-13.927 0.093-4.642 0.255-9.168 0.487-13.578v0c-4.178 0.232-8.356 0.395-12.534 0.487-4.178 0.139-8.356 0.325-12.534 0.557v0-14.971h53.27l59.885 138.223c3.017 6.963 5.989 13.927 8.913 20.89 2.878 6.963 5.896 13.927 9.053 20.89 3.11 6.963 6.174 14.043 9.191 21.239v0h0.697c2.553-6.267 5.571-13.764 9.052-22.492 3.482-8.681 6.383-16.155 8.704-22.422v0c10.213-25.532 20.844-51.134 31.893-76.806 11.002-25.625 21.842-52.133 32.519-79.522v0h51.529v11.49c-5.803-0.232-10.561 0.859-14.275 3.272-3.714 2.46-6.383 6.476-8.008 12.047-1.625 5.571-2.205 13.114-1.741 22.631v0l9.052 158.417c0.464 3.946 0.696 7.776 0.697 11.489 0 3.714 0 7.079 0 10.097v0c4.178-0.232 8.426-0.418 12.743-0.557 4.271-0.093 8.495-0.255 12.673-0.487v0 15.319h-77.99v-11.489c7.195-0.232 12.534-1.973 16.016-5.223 3.482-3.25 5.64-7.892 6.476-13.927 0.789-6.035 0.952-13.463 0.487-22.282v0l-6.963-114.896c-0.232-3.714-0.464-7.428-0.696-11.142-0.232-3.714-0.464-7.428-0.697-11.141-0.232-3.714-0.464-7.428-0.696-11.141v0c-0.696 1.625-1.439 3.366-2.228 5.222-0.836 1.857-1.602 3.83-2.298 5.919v0z" fill="#ec4899" fill-rule="nonzero" stroke="none" stroke-width="1" stroke-linecap="butt" stroke-linejoin="miter" stroke-miterlimit="10" stroke-dasharray="" stroke-dashoffset="0" font-family="none" font-weight="none" font-size="none" text-anchor="none" style="mix-blend-mode: normal" data-fill-palette-color="tertiary"></path></g></g><g transform="matrix(1,0,0,1,11.831658031088068,37.08)"><svg viewBox="0 0 371.85668393782385 173.04" height="173.04" width="371.85668393782385"><g><svg viewBox="0 0 371.85668393782385 173.04" height="173.04" width="371.85668393782385"><g><svg viewBox="0 0 371.85668393782385 173.04" height="173.04" width="371.85668393782385"><g><svg viewBox="0 0 371.85668393782385 173.04" height="173.04" width="371.85668393782385"><g id="textblocktransform"><svg viewBox="0 0 371.85668393782385 173.04" height="173.04" width="371.85668393782385" id="textblock"><g><svg viewBox="0 0 371.85668393782385 173.04" height="173.04" width="371.85668393782385"><g transform="matrix(1,0,0,1,0,0)"><svg width="371.85668393782385" viewBox="0.7000000000000002 -37.3 83.95 39.599999999999994" height="173.04" data-palette-color="#ec4899"><path d="M23.1 0.5L21.6 0.5Q19.4-4.5 17.15-9.47 14.9-14.45 12.75-19.55L12.75-19.55Q12.05-21.15 11.38-22.78 10.7-24.4 10.08-26.05 9.45-27.7 8.8-29.35L8.8-29.35Q8.8-28.8 8.78-28.25 8.75-27.7 8.75-27.15L8.75-27.15Q8.7-25.35 8.63-22.83 8.55-20.3 8.45-17.43 8.35-14.55 8.3-11.68 8.25-8.8 8.2-6.25L8.2-6.25Q8.15-5.15 8.13-4.05 8.1-2.95 8-2L8-2Q8.95-2.05 9.88-2.1 10.8-2.15 11.75-2.2L11.75-2.2 11.75 0 2.2 0 2.2-1.65Q3.75-1.7 4.48-2.33 5.2-2.95 5.4-4 5.6-5.05 5.65-6.25L5.65-6.25 6.6-29.05Q6.65-30.05 6.68-31.05 6.7-32.05 6.75-33L6.75-33Q5.85-32.95 4.95-32.93 4.05-32.9 3.15-32.85L3.15-32.85 3.15-35 10.8-35 19.4-15.15Q20.05-13.65 20.68-12.15 21.3-10.65 21.98-9.15 22.65-7.65 23.3-6.1L23.3-6.1 23.4-6.1Q23.95-7.45 24.7-9.33 25.45-11.2 25.95-12.55L25.95-12.55Q28.15-18.05 30.53-23.58 32.9-29.1 35.2-35L35.2-35 42.6-35 42.6-33.35Q41.35-33.4 40.55-32.88 39.75-32.35 39.4-31.15 39.05-29.95 39.15-27.9L39.15-27.9 40.45-5.15Q40.55-4.3 40.55-3.5 40.55-2.7 40.55-2.05L40.55-2.05Q41.45-2.1 42.38-2.13 43.3-2.15 44.2-2.2L44.2-2.2 44.2 0 33 0 33-1.65Q34.55-1.7 35.3-2.4 36.05-3.1 36.23-4.4 36.4-5.7 36.3-7.6L36.3-7.6 35.3-24.1Q35.25-24.9 35.2-25.7 35.15-26.5 35.1-27.3 35.05-28.1 35-28.9L35-28.9Q34.85-28.55 34.68-28.15 34.5-27.75 34.35-27.3L34.35-27.3 23.1 0.5ZM65.75 0.8L65.75 0.8Q61 0.8 57.6-0.8 54.2-2.4 52.07-5.08 49.95-7.75 48.95-11 47.95-14.25 47.95-17.5L47.95-17.5Q47.95-20.65 49-23.88 50.05-27.1 52.22-29.8 54.4-32.5 57.67-34.15 60.95-35.8 65.35-35.8L65.35-35.8Q69.95-35.8 73.3-34.15 76.65-32.5 78.82-29.78 81-27.05 82.07-23.85 83.15-20.65 83.15-17.5L83.15-17.5Q83.15-14.4 82.1-11.18 81.05-7.95 78.87-5.23 76.7-2.5 73.45-0.85 70.2 0.8 65.75 0.8ZM65.85-1.25L65.85-1.25Q68.95-1.25 71.25-2.58 73.55-3.9 75.07-6.13 76.6-8.35 77.37-11.08 78.15-13.8 78.15-16.55L78.15-16.55Q78.15-19.65 77.3-22.7 76.45-25.75 74.8-28.25 73.15-30.75 70.72-32.27 68.3-33.8 65.2-33.8L65.2-33.8Q62.1-33.8 59.77-32.45 57.45-31.1 55.92-28.88 54.4-26.65 53.62-23.93 52.85-21.2 52.85-18.4L52.85-18.4Q52.85-15.65 53.62-12.65 54.4-9.65 56-7.05 57.6-4.45 60.05-2.85 62.5-1.25 65.85-1.25Z" opacity="1" transform="matrix(1,0,0,1,0,0)" fill="#ec4899" class="wordmark-text-0" data-fill-palette-color="primary" id="text-0"></path></svg></g></svg></g></svg></g></svg></g></svg></g></svg></g></svg></g></svg></g><defs></defs></svg><rect width="395.52" height="247.2" fill="none" stroke="none" visibility="hidden"></rect></g></svg></g></svg>